<svg width="1503" height="480" viewBox="0 0 1503 480" fill="none" xmlns="http://www.w3.org/2000/svg">
<path d="M534.112 175.3C532.64 173.802 531.778 172.431 530.561 170.527C529.926 169.563 529.241 168.521 528.479 167.404C530.586 164.967 532.362 162.149 533.707 159.051L539.086 146.79L525.84 144.886C523.608 144.555 520.004 143.616 515.793 142.499C507.673 140.367 497.245 137.625 485.877 136.431C489.76 134.73 493.059 131.659 495.367 127.496L497.549 123.561C497.549 123.561 496.966 118.051 494.834 116.325C495.646 114.624 496.281 112.745 496.711 110.689L498.513 101.905L490.038 99.0105C488.719 98.5535 487.4 98.2236 486.106 98.0209C485.624 96.4205 484.914 94.7207 483.949 92.9177L478.926 83.7022L469.866 89.0081C467.609 90.3277 465.705 91.8512 464.158 93.5523C462.813 93.2979 461.366 93.172 459.844 93.172C459.844 93.172 454.668 92.5878 448.959 94.6691L441.652 87.0792L432.999 77.8372C424.905 69.1808 413.943 66.616 402.779 70.8819C398.517 66.616 391.869 63.088 381.542 63.088C378.04 63.088 374.97 63.5186 373.168 63.7478C373.168 63.7478 358.959 66.3364 350.966 73.9277L341.274 69.3067C334.778 79.5383 323.665 82.7881 323.665 82.7881C322.903 79.7927 321.61 76.9999 319.758 74.4351L320.391 70.8302C320.391 70.7296 322.573 58.5174 329.221 48.1599L340.792 30.1344L324.4 31.9878C324.451 30.3623 324.375 28.4333 324.147 26.148L322.675 12.134L309.836 17.9487C308.414 18.5833 307.222 19.2179 306.107 19.8021L303.568 14.3942L297.682 17.4413C297.098 15.9932 296.337 14.3438 295.297 12.4387L288.522 0L278.905 10.3826C277.916 11.4491 277.078 12.4387 276.368 13.378L270.533 7.56473L264.645 13.4045C263.91 12.4652 263.098 11.4743 262.108 10.4078L252.39 0L245.59 12.4904C244.55 14.3942 243.814 16.0184 243.231 17.4664L237.37 14.4194L234.831 19.8273C233.716 19.243 232.523 18.6084 231.102 17.9487L218.213 12.1605L216.791 26.2248C216.563 28.4837 216.486 30.3888 216.538 32.013L200.121 30.1596L211.717 48.1851C218.39 58.5174 220.521 70.7296 220.521 70.8302L221.13 74.4351C219.278 77.0251 217.958 79.8178 217.223 82.8133C217.223 82.8133 206.719 78.3195 199.689 69.3067L189.794 74.0297C178.502 66.4133 171.499 63.443 159.32 63.088C148.993 62.8085 142.345 66.616 138.082 70.8819C126.893 66.6412 115.956 69.206 107.888 77.8624C107.888 77.8624 102.585 83.6254 99.2358 87.1044C95.8866 90.6072 90.9384 93.5019 90.9384 93.5019C90.9384 93.5019 83.9102 91.928 76.678 93.5774C75.1306 91.8764 73.203 90.3541 70.919 89.0081L61.8347 83.7022L56.8362 92.968C55.8717 94.7459 55.1868 96.4205 54.731 98.0209C53.4367 98.2236 52.1172 98.5535 50.7976 99.0105L42.3731 101.956L44.1245 110.689C44.5551 112.797 45.1645 114.675 46.0018 116.376C45.5196 117.316 45.089 118.305 44.7339 119.347L43.3124 123.586L45.4692 127.521C47.7532 131.659 51.0255 134.757 54.9337 136.457C43.5403 137.65 33.1378 140.393 24.9928 142.524C20.8063 143.616 17.2028 144.582 14.9705 144.912L1.67458 146.841L4.69384 153.695L7.10503 159.153C8.47489 162.201 10.2767 165.018 12.3566 167.455C11.5697 168.573 8.22051 173.827 6.72346 175.326L0 182.155L6.44526 189.263C7.25605 190.126 14.4882 197.718 26.1851 197.743C29.3819 197.743 32.5535 197.184 35.7 196.067C38.8213 200.941 42.5254 205.892 45.9011 208.329C39.6837 215.641 32.6052 221.987 22.5312 226.786L14.108 230.797L17.7354 240.419C20.0962 246.233 24.688 252.605 33.5683 255.043C31.6659 260.729 30.7531 266.112 29.941 270.909C28.0372 282.309 27.2251 287.03 17.2028 290.558L8.19535 293.708L10.784 302.898C12.864 310.387 15.9853 315.338 19.3596 318.613L13.3714 325.213C13.3714 325.213 27.5815 335.875 41.5106 337.171C41.7133 337.196 53.589 337.958 58.9175 331.154C61.0491 338.872 64.4234 345.98 67.493 352.429C73.7859 365.681 77.1351 373.525 72.9235 380.685L63.4086 396.832L82.1085 396.045C90.2786 395.714 97.8659 395.206 104.437 393.582C104.437 393.937 104.412 394.267 104.387 394.597L102.864 408.458L119.255 405.006C120.981 404.498 122.604 403.812 124.076 403.025C134.226 414.908 151.48 424.173 174.721 424.173H176.066L149.348 435.14L168.81 445.27C181.624 451.947 195.858 457.532 212.097 462.28L209.838 470.074L219.608 472.943C225.241 474.593 245.615 480 270.431 480C295.246 480 315.596 474.593 321.255 472.943L330.997 470.074L328.739 462.306C345.003 457.558 359.239 451.972 372.052 445.296L391.514 435.167L364.77 424.199H366.114C389.357 424.199 406.585 414.933 416.735 403.05C418.206 403.839 419.831 404.524 421.556 405.031L437.946 408.483L436.449 394.648C436.424 394.317 436.399 393.962 436.399 393.607C442.946 395.231 450.557 395.714 458.702 396.07L477.402 396.857L467.939 380.735C463.701 373.576 467.075 365.731 473.343 352.479C476.414 346.031 479.788 338.922 481.92 331.204C485.522 333.946 489.405 335.597 493.262 336.46C493.262 336.46 496.256 337.349 499.123 337.424C507.395 337.678 511.529 335.318 517.214 331.738L527.541 325.238L521.501 318.638C524.877 315.388 527.997 310.437 530.078 302.973L532.692 293.758L523.658 290.61C513.611 287.081 512.824 282.359 510.921 270.96C510.109 266.162 509.222 260.754 507.293 255.093C516.173 252.63 520.741 246.258 523.1 240.47L526.704 230.822L518.279 226.811C508.205 222.014 501.127 215.666 494.884 208.355C498.285 205.917 501.989 200.966 505.136 196.092C508.257 197.209 511.429 197.743 514.651 197.768C526.348 197.768 533.605 190.177 534.392 189.314L540.837 182.205L534.112 175.3Z" fill="white"/>
<path fill-rule="evenodd" clip-rule="evenodd" d="M187.97 300.41V222.978C187.97 215.767 185.889 208.557 183.402 201.931H243.462C248.968 209.497 258.965 214.575 270.434 214.575C281.852 214.575 291.85 209.497 297.381 201.931H357.44C354.903 208.583 352.847 215.767 352.847 222.978V300.41H187.97ZM270.409 406.225C262.011 397.872 256.022 396.958 233.389 396.958C206.34 396.958 187.97 381.09 187.97 355.729V304.954H352.822V355.729C352.822 381.09 334.477 396.958 307.378 396.958C284.77 396.932 278.782 397.872 270.409 406.225Z" fill="#FFDD2D"/>
<path d="M197.533 415.794V431.255L184.111 436.663C195.453 441.817 209.535 446.945 226.079 450.727L233.69 425.924C217.452 422.599 206.135 419.121 197.533 415.794Z" fill="white"/>
<path d="M270.41 436.741C254.552 436.741 241.206 435.09 235.877 433.872L227.833 459.894C240.469 462.991 255.262 465.276 270.41 465.276C285.508 465.276 300.301 463.016 312.987 459.894L304.919 433.872C299.591 435.116 286.295 436.741 270.41 436.741Z" fill="white"/>
<path d="M343.276 415.794C334.65 419.121 323.359 422.574 307.119 425.949L314.757 450.754C331.326 446.97 345.357 441.842 356.699 436.688L343.301 431.282V415.794H343.276Z" fill="white"/>
<path d="M169.42 166.361C190.429 155.013 241.785 130.032 206.972 103.096C202.228 99.4392 197 96.1391 192.611 92.052C187.181 96.2411 194.641 106.65 196.518 110.458C196.518 110.458 184.923 111.626 182.157 111.626C164.244 111.549 145.468 100.938 154.982 80.6016C147.852 82.0748 146.99 88.9294 144.808 94.7931C140.24 91.6969 132.299 85.045 126.183 85.9843C131.157 101.902 152.09 116.246 168.329 119.496C151.913 128.432 121.464 135.084 105.453 115.84C94.2128 137.597 109.868 146.686 125.219 158.085C66.7837 184.767 75.411 214.699 37.072 238.258C42.0453 240.594 64.2215 235.897 66.2008 235.618C57.8783 246.408 53.9952 250.978 51.5602 256.233C49.2259 261.157 48.1846 266.718 45.8767 278.701C44.075 288.171 40.7762 297.614 29.2568 303.886C33.7732 312.06 43.7954 305.662 47.9819 304.571C47.4241 305.433 46.0026 315.284 42.248 320.031C61.9375 318.762 52.8281 277.228 72.5189 287.231C78.0752 290.024 79.7498 296.574 77.1876 301.93C64.2467 328.637 93.6551 352.171 92.056 375.58C99.2869 375.528 106.772 375.325 111.492 365.551C113.954 370.426 117.759 377.281 119.891 383.881L125.778 373.853C129.405 390.456 144.883 405.791 165.792 407.161C155.82 391.37 167.771 369.817 143.539 346.892C146.558 344.454 153.536 339.758 156.022 336.558C126.285 340.063 95.2528 316.528 109.336 305.358C118.546 298.071 122.58 313.202 136.79 310.663L131.232 305.865C133.186 303.936 135.419 301.423 137.728 299.519C131.689 298.782 125.092 294.923 125.092 294.923L128.695 288.958C93.8578 288.906 92.9688 262.249 107.129 261.183C113.775 260.7 122.377 272.963 143.818 270.399C141.077 267.098 139.987 262.097 138.692 258.416C143.868 257.934 149.959 257.985 154.855 255.599C144.376 254.253 141.737 250.723 133.009 244.123L143.133 240.416C128.442 233.079 129.33 220.309 128.873 207.007C136.561 211.424 145.595 218.278 155.237 215.105C157.519 214.344 158.991 213.277 159.042 210.891C145.29 205.381 136.46 184.183 169.42 166.361ZM144.326 168.443C125.929 188.117 133.897 199.898 137.602 203.528C130.75 202.056 120.525 193.323 122.859 184.869C120.677 187.483 118.445 190.327 116.161 193.246C111.593 199.34 107.509 205.306 103.88 211.094C98.2973 227.698 108.524 244.834 125.929 252.424C106.595 249.581 97.917 232.369 97.9687 221.401C88.7321 238.867 84.3178 254.812 84.7231 268.19C84.9007 273.166 85.3326 277.812 85.9923 282.204C90.4318 290.632 97.562 293.73 110.274 295.278C98.7292 296.015 92.6138 295.482 87.5901 290.202C95.4555 324.043 132.247 353.34 147.218 378.423C132.222 358.925 101.191 329.881 90.3311 308.887C89.4938 316.477 91.5235 335.924 100.961 347.882C87.0575 334.198 85.9658 313.481 86.88 301.346C83.3533 292.613 81.1196 282.865 80.8149 271.769C80.5367 261.564 81.2468 252.704 82.7942 244.758C74.0159 257.248 61.3281 262.072 55.0869 281.087C56.3044 256.563 74.5989 256.181 88.3002 226.402C93.6034 213.379 101.318 202.131 109.843 189.388C99.0087 192.941 90.8889 195.481 78.3547 209.215C87.2602 188.144 138.718 164.457 162.29 141.531C155.21 143.03 126.311 143.766 114.309 135.743C136.053 141.633 184.441 134.906 202.71 122.416C190.099 140.567 162.645 141.608 129.228 177.71C133.491 174.308 139.175 170.88 144.326 168.443Z" fill="white"/>
<path d="M494.913 278.703C492.604 266.72 491.589 261.161 489.255 256.235C486.845 250.979 482.937 246.41 474.589 235.621C476.568 235.899 498.795 240.597 503.743 238.261C465.404 214.7 474.031 184.769 415.569 158.087C430.921 146.688 446.577 137.6 435.336 115.817C419.325 135.085 388.877 128.435 372.46 119.472C388.725 116.222 409.633 101.904 414.606 85.9609C408.466 85.0216 400.523 91.6735 395.957 94.7458C393.773 88.8808 392.936 82.0262 385.807 80.5278C395.322 100.889 376.52 111.501 358.581 111.578C355.841 111.578 344.27 110.409 344.27 110.409C346.122 106.602 353.582 96.1925 348.127 92.0034C343.738 96.1157 338.561 99.3906 333.791 103.047C298.953 129.983 350.36 154.989 371.369 166.313C404.279 184.134 395.525 205.333 381.747 210.766C381.798 213.153 383.269 214.218 385.578 214.98C395.17 218.179 404.253 211.325 411.89 206.881C411.46 220.185 412.373 232.98 397.682 240.292L407.781 243.998C399.051 250.599 396.438 254.127 385.96 255.473C390.831 257.859 396.972 257.809 402.122 258.291C400.803 261.973 399.661 266.974 396.972 270.274C418.438 272.812 427.064 260.576 433.661 261.059C447.769 262.125 446.932 288.782 412.068 288.832L415.671 294.799C415.671 294.799 409.074 298.657 403.01 299.394C405.319 301.272 407.577 303.811 409.531 305.741L403.975 310.539C418.158 313.078 422.217 297.947 431.429 305.233C445.51 316.403 414.504 339.937 384.741 336.434C387.253 339.632 394.23 344.355 397.25 346.792C372.994 369.691 384.918 391.271 374.998 407.087C395.855 405.691 411.333 390.357 415.012 373.753L420.898 383.782C423.004 377.181 426.861 370.326 429.272 365.452C433.966 375.226 441.501 375.429 448.759 375.479C447.109 352.073 476.491 328.538 463.602 301.831C461.013 296.499 462.688 289.949 468.246 287.131C487.985 277.129 478.826 318.663 498.542 319.932C494.761 315.184 493.366 305.334 492.833 304.472C496.994 305.563 506.991 311.961 511.508 303.76C500.064 297.617 496.765 288.172 494.913 278.703ZM458.046 244.734C459.593 252.706 460.38 261.541 460.024 271.747C459.694 282.841 457.487 292.589 453.96 301.323C454.848 313.458 453.783 334.174 439.877 347.858C449.291 335.875 451.346 316.455 450.509 308.863C439.599 329.859 408.593 358.902 393.571 378.399C408.566 353.316 445.358 323.994 453.25 290.178C448.175 295.434 442.111 295.991 430.54 295.255C443.228 293.707 450.357 290.61 454.797 282.182C455.457 277.815 455.889 273.144 456.067 268.168C456.497 254.788 452.058 238.844 442.821 221.378C442.898 232.346 434.219 249.558 414.859 252.401C432.214 244.786 442.466 227.649 436.91 211.07C433.306 205.282 429.247 199.291 424.629 193.224C422.345 190.304 420.112 187.461 417.904 184.846C420.238 193.299 410.013 202.032 403.162 203.506C406.892 199.874 414.834 188.095 396.464 168.419C401.615 170.857 407.299 174.284 411.586 177.636C378.17 141.535 350.741 140.518 338.079 122.342C356.374 134.832 404.762 141.585 426.481 135.67C414.504 143.693 385.578 142.956 378.5 141.458C402.071 164.382 453.58 188.07 462.46 209.141C449.926 195.407 441.781 192.867 430.997 189.313C439.547 202.083 447.21 213.304 452.513 226.328C466.241 256.108 484.561 256.463 485.753 281.013C479.512 262.048 466.849 257.225 458.046 244.734Z" fill="white"/>
<path d="M297.355 201.904C291.849 209.47 281.827 214.547 270.433 214.547C267.769 214.547 265.207 214.242 262.771 213.785C263.456 216.907 265.055 220.132 268.379 222.9C267.034 231.963 270.941 240.442 280.66 242.65C281.7 247.271 284.541 250.749 289.363 252.399L282.587 260.218C279.975 263.214 276.574 264.18 273.834 263.823L243.589 260.396C244.908 257.046 241.407 253.161 231.815 254.812L243.691 221.554L236.458 206.143L222.732 217.872L221.717 252.754L215.804 249.886C208.192 246.586 205.935 260.473 213.191 260.523L216.109 260.548C215.906 261.971 216.364 263.545 217.504 264.052C216.134 264.61 215.729 267.175 217.429 268.089C215.704 268.926 215.449 271.567 216.844 272.709C215.347 275.274 215.069 280.834 220.372 282.23C224.736 283.372 227.476 278.701 228.365 275.984L275.432 290.557C282.055 292.461 286.825 291.394 292.357 286.545L304.638 275.806C303.089 282.838 305.602 289.16 310.956 291.268C310.956 291.268 310.118 297.716 310.448 300.382L326.916 300.407H352.847V222.975C352.847 215.765 354.903 208.556 357.44 201.904H326.916H297.355Z" fill="white"/>
<path d="M226.869 332.196L227.783 333.338C229.051 334.912 229.812 334.531 231.259 333.693L233.389 332.551C234.735 331.535 243.489 334.886 243.971 327.6C244.935 333.033 238.465 344.482 242.372 350.881L247.625 359.487L230.472 359.74C228.595 359.74 227.605 360.883 227.098 361.898L222.607 371.216C221.44 373.678 221.515 376.217 222.987 377.918L226.031 381.345C226.031 381.345 228.518 379.239 229.33 376.471L227.986 375.075C226.869 374.008 226.869 372.992 227.478 371.673L230.244 365.935C231.309 363.676 232.401 363.194 234.836 363.777L248.716 366.774C249.731 367.027 251.381 367.509 252.369 365.808C254.07 362.787 257.064 362.584 260.108 363.067C267.721 364.209 285.304 366.037 291.572 358.7C298.93 368.473 313.317 368.473 312.378 373.602L309.334 390.408H313.9L316.692 373.221C316.996 371.216 318.239 368.473 316.082 366.926C315.195 366.24 314.788 365.885 312.783 362.432C310.171 357.861 310.297 351.007 307.785 345.091C310.171 342.274 312.758 341.309 315.017 341.843C320.091 343.087 321.462 351.845 328.668 358.98C327.856 355.805 327.501 352.328 325.801 349.306C325.801 349.306 330.8 353.19 332.093 357.736C332.905 360.579 333.742 362.66 336.306 363.981C338.005 364.59 340.035 363.777 342.065 361.34C342.065 361.34 337.32 354.586 333.844 350.17C329.073 344.102 322.705 338.009 314.027 338.719C311.286 338.948 308.649 340.192 306.135 341.691C296.265 336.156 288.603 342.021 285.558 342.021L267.086 340.929C263.458 340.7 260.591 336.485 260.591 336.485C260.134 320.847 247.574 314.627 243.236 314.627C243.236 314.627 243.641 311.809 242.499 310.818L238.642 315.669L227.935 311.758L236.333 318.639L227.224 329.225C226.286 330.265 226.413 331.637 226.869 332.196Z" fill="white"/>
<path d="M214.767 354.153C212.178 356.159 212.306 358.951 213.854 362.074L215.402 364.969L219.436 361.896L218.523 359.916C217.863 358.519 217.888 357.098 219.03 356.21L224.815 351.844C226.439 350.65 226.946 350.523 228.673 350.777L240.877 353.341C240.877 353.341 239.025 350.65 238.415 347.908L226.921 346.385C225.297 346.181 224.307 346.868 222.887 347.959L214.767 354.153Z" fill="white"/>
<path d="M292.809 390.409H297.427L304.837 372.155C305.09 371.52 305.445 371.241 305.724 370.708C302.4 369.389 300.446 368.474 297.681 366.874C299.533 369.362 300.979 370.429 300.218 372.739L292.809 390.409Z" fill="white"/>
<path d="M296.743 143.514L305.295 94.3394L272.893 105.357V156.056L296.743 143.514ZM278.373 110.333L299.865 102.411C299.865 102.411 295.678 105.814 290.68 109.241C286.239 112.313 278.373 115.588 278.373 115.588V110.333ZM278.373 122.24L298.038 115.208C298.038 115.208 295.678 117.696 290.705 121.123C286.265 124.169 278.399 127.444 278.399 127.444V122.24H278.373ZM278.373 134.883L295.678 128.231C295.678 128.231 295.678 130.339 290.68 133.74C286.239 136.812 278.373 140.087 278.373 140.087V134.883Z" fill="white"/>
<path d="M239.099 187.004L239.809 188.146H246.482L246.559 189.313C246.635 190.431 246.889 191.573 247.269 192.74C248.309 195.914 250.364 199.24 253.663 201.93C257.494 205.028 263.027 207.263 270.385 207.263C286.345 207.263 293.551 196.929 294.236 189.313L294.286 188.146H300.985L301.696 187.004C307.988 177.152 315.676 166.211 324.607 164.637L300.249 150.496L270.385 166.745L240.494 150.496L216.161 164.637C225.093 166.185 232.781 177.152 239.099 187.004Z" fill="white"/>
<path d="M267.873 156.056V105.357L235.521 94.3394L244.021 143.514L267.873 156.056ZM262.417 140.138C262.417 140.138 254.552 136.837 250.111 133.791C245.112 130.389 245.112 128.256 245.112 128.256L262.442 134.908V140.138H262.417ZM262.417 110.333V115.588C262.417 115.588 254.552 112.313 250.111 109.241C245.087 105.814 240.874 102.411 240.874 102.411L262.417 110.333ZM262.417 122.24V127.469C262.417 127.469 254.552 124.194 250.111 121.148C245.087 117.721 242.753 115.233 242.753 115.233L262.417 122.24Z" fill="white"/>
<path d="M270.407 72.6597C251.91 72.6597 238.031 78.7274 235.011 85.835L270.407 99.8238L305.752 85.835C302.758 78.7274 288.904 72.6597 270.407 72.6597Z" fill="white"/>
<path d="M270.405 52.3503C284.031 52.3503 297.682 56.4877 306.867 61.8453C308.364 56.8944 309.963 53.3651 312.145 49.3284L303.772 50.6241L296.997 36.153L284.336 42.8805L270.405 29.0957L256.451 42.8805L243.815 36.153L236.989 50.6241L228.615 49.3284C230.797 53.3651 232.371 56.8944 233.918 61.8453C243.13 56.4877 256.729 52.3503 270.405 52.3503Z" fill="white"/>
<path d="M501.307 163.799C505.873 163.215 509.552 161.691 514.043 158.339C504.376 155.776 484.128 148.439 466.849 151.739C461.139 152.501 457.968 154.811 459.997 156.131C469.284 162.3 480.753 176.594 489.101 193.273C496.434 184.159 493.364 172.201 491.817 168.774C506.431 177.584 510.262 181.875 517.037 180.199C513.409 174.639 508.31 169.637 501.307 163.799Z" fill="white"/>
<path d="M51.709 193.251C60.0567 176.571 71.5256 162.278 80.8378 156.109C82.9178 154.788 79.6958 152.478 74.0375 151.716C56.7327 148.441 36.4338 155.753 26.7665 158.318C31.308 161.668 34.9116 163.192 39.5299 163.776C32.5017 169.641 27.4011 174.616 23.7725 180.176C30.5979 181.852 34.4041 177.561 48.9944 168.752C47.4974 172.205 44.4012 184.137 51.709 193.251Z" fill="white"/>
<path fill-rule="evenodd" clip-rule="evenodd" d="M153.028 348.064C159.752 342.731 165.335 340.066 165.055 327.143C154.956 332.322 126.309 332.044 114.333 315.542C110.959 310.846 114.562 308.483 117.835 312.19C126.03 321.483 141.204 317.268 146.736 314.603C145.847 311.403 143.386 307.239 141.33 305.463C143.412 303.432 149.273 300.385 150.465 295.156C147.344 293.455 135.19 292.236 135.19 292.236C137.144 290.357 139.58 287.742 138.108 280.762C125.7 284.569 110.349 279.39 106.873 274.795C103.448 270.276 106.95 266.036 109.842 269.032C116.033 275.531 146.533 282.97 157.875 271.672C153.662 270.505 149.02 266.748 148.182 264.412C158.687 263.345 167.06 257.151 167.745 249.432C161.934 249.432 150.972 249.002 147.218 246.209C152.242 244.355 155.438 242.527 157.037 236.891C137.829 235.723 136.307 221.456 136.206 219.095C148.715 226.305 170.739 223.105 165.03 205.334C154.626 204.776 144.147 187.945 172.743 172.484C198.751 158.393 228.311 143.212 225.698 118.205C223.998 102.211 197.686 91.2935 194.336 83.1962C183.35 88.4253 181.141 94.4929 186.089 104.673C186.089 104.673 161.604 107.111 159.676 92.0301C158.839 85.2775 163.355 78.9554 168.202 74.1066C165.461 74.1066 147.014 69.1557 141.458 84.1858C131.131 77.1285 122.275 77.3815 115.323 84.8456C126.437 91.4458 133.312 114.092 151.684 120.769C138.616 127.852 117.48 124.882 105.148 103.099C93.4764 120.693 86.753 138.109 111.796 156.717C66.25 177.46 66.5799 217.114 26.9466 236.002C30.9555 246.793 39.4303 246.793 50.2396 245.117C33.1123 267.382 47.7025 290.687 20.5781 300.207C23.1152 309.297 28.2157 316.557 38.2128 313.891C35.3711 318.335 33.4938 318.233 29.0782 323.107C43.8963 332.449 61.4807 325.697 65.4644 295.715C66.1745 290.357 73.5326 293.709 70.9955 298.963C54.0961 333.923 96.8256 360.224 81.7027 385.865C95.0238 385.307 105.198 384.266 110.731 379.772C113.445 385.155 115.095 390.486 114.485 395.741C121.844 394.243 124.533 389.902 125.04 384.875C129.861 398.965 147.116 414.02 174.722 414.02C160.082 393.101 173.708 371.903 153.028 348.064ZM125.777 373.832L119.891 383.859C117.784 377.259 113.953 370.404 111.491 365.53C106.747 375.303 99.2619 375.507 92.0549 375.558C93.654 352.151 64.2456 328.617 77.1864 301.908C79.7751 296.577 78.0741 290.027 72.5178 287.209C52.8031 277.207 61.9364 318.74 42.2469 320.009C46.0028 315.263 47.423 305.412 47.9821 304.549C43.7943 305.64 33.772 312.038 29.2557 303.864C40.775 297.593 44.0738 288.149 45.8756 278.679C48.1596 266.696 49.2247 261.137 51.5339 256.211C53.9702 250.956 57.852 246.386 66.1745 235.597C64.1952 235.875 42.0442 240.573 37.0456 238.237C75.3847 214.677 66.7574 184.745 125.193 158.063C109.867 146.664 94.2117 137.576 105.428 115.819C121.438 135.062 151.861 128.411 168.302 119.474C152.064 116.224 131.131 101.907 126.182 85.9624C132.298 85.0231 140.24 91.675 144.781 94.7725C146.989 88.8823 147.852 82.0529 154.981 80.581C145.466 100.916 164.243 111.527 182.157 111.604C184.947 111.604 196.518 110.436 196.518 110.436C194.666 106.628 187.181 96.2192 192.61 92.0301C197.001 96.1437 202.227 99.4186 206.973 103.074C241.81 130.035 190.428 155.016 169.419 166.364C136.459 184.187 145.289 205.411 159.042 210.819C158.99 213.205 157.52 214.271 155.236 215.033C145.594 218.231 136.561 211.351 128.873 206.935C129.329 220.237 128.416 233.032 143.132 240.344L133.008 244.026C141.712 250.651 144.376 254.155 154.855 255.526C149.958 257.912 143.894 257.862 138.691 258.344C140.011 262.025 141.077 267.026 143.817 270.327C122.376 272.866 113.775 260.628 107.127 261.11C92.969 262.177 93.8567 288.834 128.694 288.885L125.092 294.851C125.092 294.851 131.688 298.71 137.753 299.445C135.444 301.325 133.212 303.864 131.258 305.793L136.814 310.591C122.58 313.13 118.571 297.999 109.335 305.285C95.253 316.456 126.284 339.99 156.023 336.486C153.536 339.686 146.533 344.407 143.539 346.845C167.77 369.744 155.819 391.323 165.79 407.14C144.883 405.769 129.406 390.409 125.777 373.832Z" fill="black"/>
<path fill-rule="evenodd" clip-rule="evenodd" d="M87.5425 290.202C92.5927 295.457 98.6816 296.015 110.227 295.28C97.5144 293.731 90.3842 290.634 85.9447 282.205C85.3101 277.839 84.8782 273.167 84.7007 268.191C84.2953 254.812 88.7096 238.868 97.9463 221.401C97.8959 232.344 106.548 249.556 125.908 252.424C108.501 244.809 98.2762 227.673 103.858 211.094C107.486 205.306 111.572 199.315 116.139 193.247C118.423 190.327 120.655 187.484 122.837 184.869C120.503 193.323 130.729 202.056 137.58 203.529C133.875 199.898 125.908 188.144 144.303 168.469C139.179 170.906 133.494 174.333 129.182 177.685C162.572 141.583 190.052 140.569 202.663 122.391C184.394 134.881 136.007 141.634 114.261 135.718C126.263 143.741 155.164 143.005 162.243 141.508C138.696 164.433 87.2391 188.119 78.3071 209.19C90.8413 195.431 98.9611 192.917 109.821 189.388C101.27 202.158 93.5823 213.379 88.2791 226.402C74.5778 256.157 56.2581 256.538 55.0645 281.062C61.307 262.047 73.9935 257.223 82.7731 244.733C81.2244 252.704 80.4891 261.539 80.7687 271.746C81.0734 282.84 83.3057 292.588 86.8324 301.321C85.9447 313.456 87.0099 334.173 100.915 347.857C91.4759 335.899 89.4462 316.452 90.2835 308.862C101.168 329.856 132.201 358.9 147.197 378.398C132.201 353.34 95.4344 324.043 87.5425 290.202Z" fill="black"/>
<path fill-rule="evenodd" clip-rule="evenodd" d="M431.02 189.39C441.804 192.944 449.949 195.458 462.483 209.217C453.603 188.146 402.069 164.459 378.523 141.535C385.601 143.007 414.528 143.768 426.504 135.745C404.783 141.661 356.397 134.908 338.103 122.417C350.739 140.595 378.193 141.61 411.609 177.712C407.322 174.36 401.638 170.932 396.487 168.496C414.857 188.171 406.915 199.951 403.186 203.581C410.036 202.108 420.261 193.375 417.927 184.921C420.135 187.536 422.368 190.379 424.652 193.299C429.244 199.392 433.304 205.358 436.933 211.146C442.514 227.75 432.263 244.887 414.908 252.478C434.269 249.633 442.946 232.396 442.844 221.455C452.106 238.921 456.52 254.864 456.115 268.243C455.937 273.219 455.506 277.865 454.846 282.257C450.38 290.686 443.25 293.783 430.563 295.332C442.134 296.042 448.198 295.509 453.273 290.254C445.381 324.095 408.615 353.392 393.594 378.475C408.615 358.978 439.597 329.935 450.532 308.939C451.37 316.53 449.34 335.977 439.9 347.934C453.806 334.251 454.871 313.535 453.983 301.4C457.485 292.666 459.692 282.917 460.047 271.823C460.377 261.616 459.591 252.757 458.068 244.81C466.873 257.302 479.534 262.125 485.802 281.14C484.609 256.59 466.29 256.21 452.562 226.456C447.233 213.356 439.571 202.135 431.02 189.39Z" fill="black"/>
<path fill-rule="evenodd" clip-rule="evenodd" d="M490.602 245.065C501.385 246.765 509.86 246.765 513.894 235.976C474.26 217.088 474.59 177.458 429.046 156.69C454.089 138.107 447.34 120.666 435.693 103.072C423.387 124.855 402.174 127.825 389.158 120.743C407.477 114.065 414.405 91.419 425.519 84.8187C418.566 77.3547 409.686 77.1016 399.358 84.159C393.776 69.1289 375.354 74.0797 372.59 74.0797C377.411 78.9034 381.977 85.2255 381.115 92.0032C379.211 107.084 354.726 104.646 354.726 104.646C359.674 94.4661 357.467 88.3984 346.48 83.168C343.131 91.2666 316.844 102.184 315.117 118.178C312.48 143.185 342.09 158.366 368.073 172.457C396.668 187.918 386.189 204.775 375.812 205.307C370.051 223.078 392.076 226.278 404.611 219.068C404.56 221.429 402.961 235.696 383.754 236.865C385.377 242.5 388.55 244.329 393.573 246.182C389.818 249 378.856 249.405 373.072 249.405C373.757 257.124 382.155 263.344 392.659 264.385C391.822 266.721 387.153 270.478 382.967 271.645C394.309 282.943 424.807 275.504 431 269.005C433.841 266.009 437.316 270.249 433.917 274.768C430.415 279.389 415.09 284.567 402.656 280.735C401.236 287.69 403.621 290.33 405.575 292.209C405.575 292.209 393.421 293.428 390.275 295.129C391.467 300.358 397.353 303.38 399.409 305.436C397.328 307.212 394.866 311.376 393.979 314.576C399.562 317.267 414.735 321.456 422.88 312.163C426.179 308.483 429.781 310.819 426.406 315.515C414.43 332.017 385.783 332.27 375.659 327.117C375.38 340.039 380.962 342.704 387.686 348.036C366.982 371.874 380.658 393.074 366.017 413.941C393.599 413.941 410.852 398.887 415.673 384.797C416.232 389.799 418.871 394.166 426.204 395.663C425.645 390.407 427.269 385.076 429.958 379.695C435.541 384.189 445.716 385.229 459.037 385.788C443.939 360.146 486.669 333.844 469.719 298.886C467.207 293.63 474.565 290.28 475.275 295.636C479.234 325.62 496.843 332.372 511.687 323.03C507.221 318.155 505.368 318.256 502.527 313.814C512.524 316.48 517.599 309.218 520.161 300.13C493.164 290.635 507.755 267.329 490.602 245.065ZM492.885 304.573C493.417 305.436 494.814 315.286 498.595 320.034C478.879 318.765 488.013 277.23 468.299 287.233C462.741 290.026 461.092 296.576 463.655 301.933C476.544 328.64 447.162 352.174 448.812 375.581C441.554 375.531 434.019 375.328 429.324 365.554C426.914 370.428 423.032 377.282 420.926 383.884L415.04 373.855C411.386 390.459 395.908 405.792 375.05 407.189C384.971 391.398 373.045 369.818 397.303 346.894C394.258 344.457 387.281 339.734 384.769 336.536C414.532 340.039 445.538 316.505 431.455 305.334C422.245 298.049 418.186 313.179 404.001 310.64L409.559 305.843C407.605 303.912 405.346 301.399 403.038 299.495C409.102 298.759 415.699 294.9 415.699 294.9L412.096 288.934C446.933 288.884 447.771 262.227 433.689 261.16C427.066 260.678 418.439 272.939 396.998 270.376C399.714 267.076 400.829 262.075 402.149 258.393C396.973 257.911 390.858 257.961 385.986 255.575C396.466 254.229 399.105 250.701 407.807 244.099L397.71 240.394C412.4 233.057 411.461 220.287 411.918 206.983C404.255 211.401 395.171 218.256 385.606 215.082C383.322 214.32 381.825 213.254 381.775 210.868C395.553 205.434 404.331 184.236 371.397 166.414C350.412 155.066 299.006 130.085 333.819 103.149C338.588 99.4924 343.765 96.1923 348.129 92.1052C353.585 96.2943 346.125 106.703 344.273 110.511C344.273 110.511 355.842 111.678 358.584 111.678C376.522 111.603 395.324 100.991 385.809 80.6296C392.939 82.1028 393.776 88.9826 395.958 94.8463C400.525 91.7502 408.442 85.1234 414.608 86.0627C409.609 101.98 388.727 116.324 372.462 119.574C388.88 128.51 419.327 135.162 435.338 115.919C446.553 137.675 430.923 146.765 415.572 158.163C474.032 184.82 465.38 214.777 503.744 238.336C498.797 240.672 476.569 235.976 474.59 235.696C482.964 246.487 486.871 251.056 489.256 256.312C491.59 261.236 492.606 266.771 494.914 278.779C496.741 288.249 500.065 297.692 511.534 303.964C507.043 312.063 497.046 305.665 492.885 304.573Z" fill="black"/>
<path fill-rule="evenodd" clip-rule="evenodd" d="M214.512 370.097L222.86 363.013L221.592 360.475C220.678 358.647 221.16 358.545 222.124 357.835L226.539 354.56C227.554 353.721 228.62 353.823 229.863 354.128L243.083 357.225H229.127C225.905 357.428 224.966 358.672 223.799 361.059L222.835 363.013L219.258 370.376C218.039 372.915 217.404 376.291 220.602 380.1L223.139 383.12L218.014 393.504H222.327L225.879 386.293C226.159 386.04 231.411 381.242 232.527 376.291C231.005 375.047 229.94 374.184 230.777 372.458L232.375 369.006C232.909 367.862 233.086 367.405 234.608 367.685L248.462 370.68C250.187 371.162 252.725 371.924 254.577 369.132C256.48 366.238 256.734 366.543 261.148 366.973L268.228 367.735C277.895 368.649 287.563 366.238 291.317 363.243C292.637 366.238 295.251 368.549 296.468 370.884C296.925 371.747 296.165 372.966 295.581 374.489L287.638 393.479H299.894L306.822 376.164C307.455 374.514 308.394 373.193 309.104 372.534L305.121 393.504H317.021L320.168 372.763C320.853 368.142 320.446 366.67 318.239 364.765C313.291 360.576 313.393 351.792 311.794 346.461C312.631 345.979 313.621 345.725 314.788 345.877C317.377 346.106 319.331 352.732 322.375 356.996C328.465 365.552 336.761 374.997 346.277 361.694C345.363 360.17 344.374 358.799 343.207 357.48L340.542 354.357C338.995 352.63 331.637 344.201 328.566 341.18C321.588 334.148 310.881 335.215 306.618 338.642C296.95 333.564 286.751 338.895 284.341 338.692L267.696 337.676C266.934 337.626 265.792 337.372 264.98 336.077L268.076 335.062C265.183 323.003 257.901 312.925 245.188 311.172C245.188 311.172 244.453 307.364 242.499 306.628L238.693 311.096C237.628 311.249 236.46 311.579 235.496 311.985L219.258 305.943L231.437 318.256C231.437 318.256 225.119 327.217 223.317 329.045C222.124 330.721 222.225 332.015 223.57 333.614L225.931 336.712C227.148 338.312 228.493 338.261 230.447 337.271L233.111 335.875C234.278 334.91 238.185 336.814 239.86 335.29C238.795 338.794 238.262 342.17 238.008 344.836L227.073 343.516C224.687 343.186 223.596 343.516 222.15 344.658L212.812 351.843C209.768 354.178 208.829 358.215 210.706 362.151L214.512 370.097ZM304.842 372.153L297.433 390.432H292.814L300.224 372.736C300.984 370.452 299.539 369.386 297.687 366.898C300.427 368.447 302.406 369.461 305.73 370.732C305.45 371.239 305.095 371.519 304.842 372.153ZM233.389 332.574L231.284 333.691C229.812 334.529 229.077 334.91 227.808 333.336L226.894 332.168C226.438 331.609 226.286 330.264 227.224 329.197L236.308 318.611L227.935 311.731L238.592 315.666L242.499 310.792C243.641 311.756 243.236 314.574 243.236 314.574C247.549 314.574 260.108 320.819 260.591 336.459C260.591 336.459 263.432 340.647 267.061 340.876L285.558 341.993C288.628 341.993 296.291 336.154 306.135 341.663C308.622 340.164 311.286 338.972 314.027 338.667C322.705 338.033 329.099 344.075 333.844 350.168C337.32 354.585 342.09 361.338 342.09 361.338C340.035 363.775 338.03 364.587 336.331 363.978C333.767 362.658 332.93 360.602 332.119 357.733C330.825 353.189 325.826 349.304 325.826 349.304C327.526 352.351 327.881 355.804 328.693 358.977C321.462 351.817 320.091 343.084 315.042 341.865C312.81 341.308 310.196 342.272 307.785 345.065C310.323 350.98 310.196 357.835 312.81 362.429C314.788 365.857 315.22 366.161 316.107 366.923C318.239 368.447 317.047 371.214 316.717 373.22L313.977 390.407H309.359L312.403 373.6C313.342 368.472 298.955 368.472 291.597 358.697C285.329 366.034 267.746 364.207 260.134 363.064C257.064 362.607 254.07 362.811 252.395 365.831C251.406 367.532 249.756 367.025 248.741 366.771L234.861 363.775C232.426 363.216 231.36 363.698 230.295 365.933L227.528 371.671C226.92 373.016 226.945 374.007 228.061 375.099L229.381 376.495C228.595 379.236 226.083 381.344 226.083 381.344L223.062 377.942C221.592 376.215 221.515 373.727 222.682 371.29L227.173 361.897C227.706 360.855 228.67 359.739 230.548 359.739L247.7 359.484L242.449 350.93C238.54 344.506 245.036 333.057 244.046 327.649C243.514 334.885 234.761 331.583 233.389 332.574ZM214.766 354.153L222.885 347.958C224.332 346.867 225.296 346.156 226.946 346.359L238.414 347.883C239.048 350.625 240.875 353.316 240.875 353.316L228.67 350.751C226.945 350.548 226.438 350.625 224.814 351.792L219.028 356.159C217.886 357.048 217.836 358.469 218.496 359.866L219.435 361.871L215.4 364.917L213.852 362.024C212.28 358.952 212.178 356.134 214.766 354.153Z" fill="black"/>
<path fill-rule="evenodd" clip-rule="evenodd" d="M250.134 133.765C254.574 136.838 262.441 140.113 262.441 140.113V134.882L245.109 128.257C245.109 128.257 245.109 130.388 250.134 133.765Z" fill="black"/>
<path fill-rule="evenodd" clip-rule="evenodd" d="M262.409 127.47V122.241L242.745 115.208C242.745 115.208 245.079 117.697 250.104 121.124C254.544 124.17 262.409 127.47 262.409 127.47Z" fill="black"/>
<path fill-rule="evenodd" clip-rule="evenodd" d="M262.413 115.587V110.333L240.87 102.412C240.87 102.412 245.083 105.814 250.107 109.242C254.546 112.312 262.413 115.587 262.413 115.587Z" fill="black"/>
<path fill-rule="evenodd" clip-rule="evenodd" d="M322.929 187.002H344.953C344.04 183.804 340.614 180.58 334.194 180.58C328.105 180.58 324.451 184.084 322.929 187.002Z" fill="black"/>
<path fill-rule="evenodd" clip-rule="evenodd" d="M299.89 102.412L278.397 110.333V115.587C278.397 115.587 286.264 112.312 290.704 109.242C295.702 105.814 299.89 102.412 299.89 102.412Z" fill="black"/>
<path fill-rule="evenodd" clip-rule="evenodd" d="M295.702 128.257L278.397 134.907V140.138C278.397 140.138 286.264 136.838 290.704 133.791C295.702 130.388 295.702 128.257 295.702 128.257Z" fill="black"/>
<path fill-rule="evenodd" clip-rule="evenodd" d="M298.035 115.208L278.371 122.241V127.47C278.371 127.47 286.262 124.195 290.677 121.149C295.701 117.697 298.035 115.208 298.035 115.208Z" fill="black"/>
<path fill-rule="evenodd" clip-rule="evenodd" d="M206.568 180.58C200.149 180.58 196.723 183.804 195.811 187.002H217.86C216.287 184.084 212.683 180.58 206.568 180.58Z" fill="black"/>
<path fill-rule="evenodd" clip-rule="evenodd" d="M314.151 88.2948C314.151 75.9064 293.345 64.811 270.381 64.811C247.418 64.811 226.612 75.9064 226.612 88.2948L227.094 91.3419L236.229 143.97L192.84 169.281C188.221 171.997 182.437 179.461 181.701 186.977H189.618C190.937 179.461 196.849 171.135 207.937 171.642C217.96 172.176 223.897 178.269 229.784 186.977L231.306 189.261L233.488 192.688H169.674C174.368 202.108 178.808 212.11 178.808 222.95V355.702C178.808 389.848 205.019 406.121 233.412 406.121C255.335 406.121 258.303 405.131 270.407 417.241C282.46 405.131 285.427 406.121 307.401 406.121C335.769 406.121 362.005 389.848 362.005 355.702V222.976C362.005 212.135 366.446 202.133 371.139 192.713H307.275L309.482 189.286L311.004 187.002C316.865 178.294 322.828 172.201 332.851 171.667C343.889 171.16 349.851 179.486 351.145 187.002H359.037C358.326 179.486 352.515 171.997 347.923 169.306L304.534 143.996L313.694 91.3671L314.151 88.2948ZM235.492 94.3373L267.87 105.356V156.054L244.019 143.513L235.492 94.3373ZM243.46 201.904C247.723 207.743 254.624 212.06 262.794 213.734C263.48 216.806 265.155 220.183 268.402 222.899C267.057 231.962 270.939 240.417 280.683 242.651C281.698 247.272 284.565 250.75 289.361 252.399L282.586 260.22C279.998 263.215 276.623 264.179 273.833 263.824L243.587 260.397C244.906 257.045 241.405 253.161 231.838 254.812L243.739 221.555L236.482 206.144L222.73 217.873L221.715 252.756L215.88 249.886C208.19 246.586 205.958 260.473 213.266 260.524L216.158 260.549C215.98 261.971 216.412 263.545 217.529 264.027C216.158 264.611 215.752 267.2 217.477 268.114C215.727 268.928 215.498 271.568 216.894 272.71C215.372 275.274 215.143 280.834 220.446 282.23C224.785 283.372 227.5 278.701 228.389 275.985L275.43 290.557C282.103 292.462 286.824 291.395 292.355 286.546L304.636 275.807C303.087 282.84 305.626 289.16 310.979 291.268C310.979 291.268 310.217 297.59 310.447 300.408H187.968V222.976C187.968 215.765 185.887 208.556 183.402 201.904H243.46ZM294.055 231.278C291.467 236.228 291.72 241.914 294.765 247.068L292.735 249.049C283.905 247.957 280.429 234.78 280.429 234.78C280.251 235.974 280.151 237.116 280.176 238.285C275.025 236.381 271.776 231.81 272.031 225.54C273.985 226.631 276.167 227.393 278.501 227.8L279.109 223.941C272.944 222.874 269.341 219.015 267.972 214.446C267.667 214.42 267.413 214.344 267.133 214.318C268.225 214.395 269.316 214.496 270.432 214.496C274.086 214.496 277.562 213.938 280.81 212.972C283.373 216.629 287.914 219.244 292.482 219.752C291.746 222.797 292.101 226.581 294.055 231.278ZM307.123 266.108C306.234 267.302 305.524 268.673 305.067 270.172L300.145 274.691C301.135 267.48 296.288 258.976 291.873 255.497L297.099 250.368L298.14 251.435C296.389 256.03 299.815 265.043 307.123 266.108ZM283.347 263.85L287.407 259.863C291.518 263.469 296.948 271.516 295.247 279.183L290.833 283.245C289.919 284.134 288.981 284.769 288.016 285.353C290.782 278.523 287.254 268.014 283.347 263.85ZM274.618 267.227H274.745C276.217 267.454 277.791 267.2 279.211 266.617C282.307 271.034 284.717 281.088 281.013 287.359C278.907 287.409 276.852 287.029 274.923 286.47L273.401 286.013C276.522 281.164 276.09 272.583 274.618 267.227ZM264.393 265.956L270.102 266.667C271.016 271.416 270.407 279.615 267.387 284.286L260.739 282.357C263.658 278.396 265.028 270.247 264.393 265.956ZM252.494 264.509L259.42 265.321C260.105 269.13 258.81 277.229 256.198 281.088L249.143 279.057C251.96 275.325 252.975 268.749 252.494 264.509ZM224.455 262.656C221.233 263.697 219.812 261.362 219.939 259.381C226.257 257.07 229.074 258.569 230.926 259.737C232.625 260.802 234.047 263.85 236.33 265.753C235.949 268.343 235.162 272.101 234.224 274.614C227.754 272.963 227.424 267.252 229.834 263.773C228.489 262.199 227.069 261.793 224.455 262.656ZM219.939 275.274C219.939 275.274 221.868 276.087 224.303 276.264C224.025 277.609 222.983 278.878 221.334 278.523C219.964 278.219 219.355 276.543 219.939 275.274ZM213.57 256.741C211.971 255.675 212.681 253.34 214.458 253.34C216.412 253.39 219 255.599 221.563 256.69C221.563 256.69 214.838 257.604 213.57 256.741ZM220.142 270.197C221.538 271.541 225.724 271.034 225.724 271.034L225.877 271.871C224.05 274.309 218.974 273.217 220.142 270.197ZM225.775 267.429C222.781 268.623 219.711 266.997 220.649 265.068C222.045 266.338 225.927 265.703 225.927 265.703L225.775 267.429ZM230.19 232.572L224.455 253.466L226.409 219.752L235.29 212.16L239.806 222.087L228.389 254.837L231.408 232.801C231.687 231.227 230.443 231.048 230.19 232.572ZM230.596 257.909C230.596 257.909 236.989 257.604 238.791 258.289C240.111 258.848 239.223 261.082 237.497 260.829C235.696 260.6 230.596 257.909 230.596 257.909ZM240.618 262.986L247.571 263.85C248.103 267.657 247.114 274.106 244.627 277.711L237.903 275.756C239.68 271.516 240.111 267.531 240.618 262.986ZM352.845 355.727C352.845 371.873 345.386 384.135 332.978 390.94L337.419 381.902H333.105L327.395 393.478C321.484 395.712 314.785 396.956 307.376 396.956C284.743 396.956 278.754 397.87 270.381 406.223C261.983 397.87 255.995 396.956 233.387 396.956C226.029 396.956 219.329 395.763 213.443 393.528H213.596L219.304 381.902H215.016L210.017 392.082C208.825 391.523 207.658 390.915 206.542 390.253L210.652 381.902H206.39L203.344 388.122C193.652 380.988 187.943 369.817 187.943 355.727V304.952H352.795V355.727H352.845ZM357.438 201.904C354.876 208.556 352.82 215.765 352.82 222.976V300.408H343.812C339.728 296.447 336.277 283.245 336.277 283.245C334.043 287.993 336.607 297.615 338.991 300.408H327.395C324.528 296.524 322.042 282.763 322.042 282.763C318.565 286.724 320.774 297.411 322.93 300.408H315.216C314.734 294.898 316.308 288.907 316.308 288.907C312.274 288.171 307.985 286.038 308.01 281.57C310.04 283.474 310.877 283.449 313.694 283.397L316.967 280.809C306.108 281.164 305.6 269.232 314.226 263.647C305.626 263.925 299.206 258.798 302.327 249.658C296.211 246.485 294.055 236.126 298.571 231.582C295.299 228.028 294.765 221.046 296.846 216.299C292.507 216.299 287.636 214.573 284.92 211.603C284.717 211.703 284.464 211.78 284.235 211.856C289.666 209.647 294.257 206.195 297.353 201.93H357.438V201.904ZM324.605 164.635C315.673 166.184 307.985 177.125 301.692 187.002L300.982 188.144H294.257L294.232 189.312C293.547 196.928 286.316 207.261 270.381 207.261C263.023 207.261 257.466 205.001 253.661 201.93C250.362 199.238 248.281 195.913 247.266 192.74C246.886 191.596 246.657 190.429 246.556 189.312L246.506 188.144H239.831L239.121 187.002C232.803 177.152 225.115 166.209 216.21 164.635L240.543 150.494L270.432 166.743L300.272 150.494L324.605 164.635ZM296.744 143.513L272.918 156.054V105.356L305.296 94.3373L296.744 143.513ZM270.407 99.8208L235.011 85.832C238.005 78.7243 251.884 72.6566 270.407 72.6566C288.904 72.6566 302.757 78.7243 305.752 85.832L270.407 99.8208Z" fill="black"/>
<path fill-rule="evenodd" clip-rule="evenodd" d="M349.066 251.945L349.143 248.061C337.242 247.781 334.502 233.742 334.502 233.742C331.026 244.074 340.11 251.793 349.066 251.945Z" fill="black"/>
<path fill-rule="evenodd" clip-rule="evenodd" d="M334.045 275.733L332.853 272.052C322.704 274.641 317.452 258.546 317.452 258.546C314.204 270.249 325.52 278.526 334.045 275.733Z" fill="black"/>
<path fill-rule="evenodd" clip-rule="evenodd" d="M341.098 260.804C328.97 262.735 323.997 248.619 323.997 248.619C322.651 256.312 327.625 264.106 335.669 264.918C333.842 274.946 343.154 280.099 351.223 276.519L350.055 273.017C343.052 275.377 336.481 268.446 341.098 260.804Z" fill="black"/>
<path fill-rule="evenodd" clip-rule="evenodd" d="M333.844 220.516L333.944 216.631C317.934 213.331 319.279 202.312 319.279 202.312C315.829 212.696 324.912 220.363 333.844 220.516Z" fill="black"/>
<path fill-rule="evenodd" clip-rule="evenodd" d="M232.395 381.904L226.661 393.53H230.975L236.683 381.904H232.395Z" fill="black"/>
<path fill-rule="evenodd" clip-rule="evenodd" d="M241.05 381.904L235.34 393.53H239.68L245.338 381.904H241.05Z" fill="black"/>
<path fill-rule="evenodd" clip-rule="evenodd" d="M275.709 381.904L270 393.53H274.287L280.022 381.904H275.709Z" fill="black"/>
<path fill-rule="evenodd" clip-rule="evenodd" d="M284.392 381.904L278.632 393.53H282.971L288.654 381.904H284.392Z" fill="black"/>
<path fill-rule="evenodd" clip-rule="evenodd" d="M267.055 381.904L261.321 393.53H265.635L271.344 381.904H267.055Z" fill="black"/>
<path fill-rule="evenodd" clip-rule="evenodd" d="M317.679 393.53H321.992L327.701 381.904H323.387L317.679 393.53Z" fill="black"/>
<path fill-rule="evenodd" clip-rule="evenodd" d="M249.721 381.904L244.011 393.53H248.324L254.034 381.904H249.721Z" fill="black"/>
<path fill-rule="evenodd" clip-rule="evenodd" d="M258.358 381.904L252.649 393.53H256.988L262.697 381.904H258.358Z" fill="black"/>
<path fill-rule="evenodd" clip-rule="evenodd" d="M238.767 319.4C237.98 319.4 237.295 320.162 237.295 321.153C237.295 322.117 237.98 322.904 238.767 322.904C239.579 322.904 240.289 322.117 240.289 321.153C240.264 320.162 239.579 319.4 238.767 319.4Z" fill="black"/>
<path fill-rule="evenodd" clip-rule="evenodd" d="M270.401 56.9693C288.163 56.9693 302.397 62.8595 310.238 69.1815C310.238 69.1815 312.597 55.0656 320.539 42.6772L306.229 44.2762L298.743 28.3333L284.357 35.8226L270.401 21.9609L256.446 35.8226L242.008 28.3333L234.523 44.2762L220.212 42.6772C228.179 55.0656 230.514 69.1815 230.514 69.1815C238.381 62.8595 252.64 56.9693 270.401 56.9693ZM236.984 50.6235L243.81 36.1524L256.446 42.8799L270.401 29.0951L284.357 42.8799L296.993 36.1524L303.742 50.6235L312.141 49.3278C309.984 53.3645 308.36 56.8938 306.863 61.8447C297.678 56.4871 284.027 52.3497 270.401 52.3497C256.725 52.3497 243.1 56.4871 233.915 61.8447C232.392 56.8938 230.793 53.3645 228.611 49.3278L236.984 50.6235Z" fill="black"/>
<path fill-rule="evenodd" clip-rule="evenodd" d="M285.022 28.4595C287.102 28.637 288.954 27.0631 289.131 25.0057C289.335 22.9244 286.29 17.3906 286.29 17.3906C286.29 17.3906 281.748 22.2898 281.596 24.3711C281.393 26.4021 282.966 28.2555 285.022 28.4595Z" fill="black"/>
<path fill-rule="evenodd" clip-rule="evenodd" d="M308.466 36.9619C310.319 37.9515 312.576 37.2162 313.566 35.3628C314.581 33.5345 313.921 27.2642 313.921 27.2642C313.921 27.2642 307.882 29.9801 306.893 31.8335C305.928 33.6617 306.64 35.9457 308.466 36.9619Z" fill="black"/>
<path fill-rule="evenodd" clip-rule="evenodd" d="M255.765 28.4595C257.871 28.2555 259.419 26.4286 259.241 24.3711C259.039 22.2898 254.548 17.3906 254.548 17.3906C254.548 17.3906 251.528 22.9496 251.706 25.0057C251.858 27.0631 253.71 28.637 255.765 28.4595Z" fill="black"/>
<path fill-rule="evenodd" clip-rule="evenodd" d="M232.346 36.9619C234.198 35.9457 234.883 33.6617 233.918 31.8335C232.954 29.9801 226.89 27.2642 226.89 27.2642C226.89 27.2642 226.256 33.5345 227.271 35.3628C228.21 37.2162 230.494 37.9515 232.346 36.9619Z" fill="black"/>
<path fill-rule="evenodd" clip-rule="evenodd" d="M513.615 165.931C518.614 164.153 522.47 159.381 524.398 154.963C511.686 153.136 477.914 138.943 450.155 150.496C460.559 140.619 469.896 139.35 470.784 125.133C475.097 128.231 482.38 129.982 486.491 122.593C483.624 114.14 476.392 120.994 475.377 118.659C473.955 115.409 484.486 119.65 486.744 108.656C478.548 105.838 476.112 112.541 474.641 110.992C473.295 109.52 479.843 106.701 475.022 97.8418C466.496 102.843 470.936 108.454 469.135 109.088C466.952 109.951 468.678 103.071 459.239 103.401C458.3 113.53 468.094 113.86 466.496 115.461C464.542 117.415 462.005 109.646 454.875 113.582C455.002 121.756 461.624 126.25 468.449 124.321C467.334 139.857 453.073 136.964 442.467 154.481C464.948 166.007 475.122 186.113 488.952 200.025C493.519 196.777 501.334 182.356 501.334 182.356C516.304 193.959 526.834 182.406 526.834 182.406C521.683 177.126 521.48 173.116 513.615 165.931ZM491.794 168.749C493.341 172.176 496.411 184.133 489.078 193.248C480.73 176.568 469.261 162.274 459.974 156.106C457.945 154.785 461.091 152.475 466.826 151.713C484.105 148.438 504.378 155.75 514.02 158.315C509.529 161.665 505.875 163.189 501.284 163.748C508.287 169.637 513.411 174.613 517.015 180.148C510.239 181.849 506.408 177.558 491.794 168.749Z" fill="black"/>
<path fill-rule="evenodd" clip-rule="evenodd" d="M347.439 428.058V409.068C332.773 415.796 314.123 421.254 290.12 423.412L289.028 430.191C291.058 430.47 293.647 430.724 297.098 430.953C288.216 432.171 276.722 432.755 270.431 432.755C264.113 432.755 252.644 432.171 243.737 430.953C247.163 430.724 249.75 430.47 251.781 430.191L250.689 423.412C226.686 421.254 208.012 415.796 193.371 409.068V428.058L173.478 436.232C188.22 443.901 205.17 450.146 224.757 455.197L222.423 463.144C233.639 466.444 251.577 469.795 270.379 469.795C289.181 469.795 307.095 466.419 318.335 463.144L316.026 455.197C335.589 450.146 352.589 443.901 367.332 436.232L347.439 428.058ZM184.109 436.664L197.532 431.256V415.796C206.158 419.122 217.475 422.575 233.715 425.951L226.102 450.755C209.534 446.946 195.451 441.818 184.109 436.664ZM270.404 465.251C255.256 465.251 240.464 462.991 227.828 459.869L235.871 433.846C241.2 435.091 254.546 436.715 270.404 436.715C286.289 436.715 299.559 435.065 304.913 433.846L312.981 459.869C300.295 462.991 285.527 465.251 270.404 465.251ZM314.733 450.755L307.12 425.951C323.359 422.6 334.675 419.122 343.302 415.796V431.256L356.7 436.664C345.359 441.818 331.326 446.946 314.733 450.755Z" fill="black"/>
<path fill-rule="evenodd" clip-rule="evenodd" d="M39.4816 182.356C39.4816 182.356 47.2967 196.777 51.8382 200.025C65.6919 186.139 75.8917 166.032 98.3474 154.481C87.7157 136.964 73.4567 139.909 72.3902 124.321C79.2157 126.25 85.8133 121.731 85.9656 113.582C78.8102 109.646 76.2732 117.466 74.3443 115.461C72.7465 113.81 82.5145 113.53 81.6017 103.401C72.1623 103.096 73.8872 109.951 71.6801 109.088C69.9035 108.454 74.3443 102.818 65.7939 97.8418C60.998 106.727 67.5691 109.52 66.1993 110.992C64.7539 112.541 62.2672 105.864 54.0957 108.656C56.3042 119.65 66.8842 115.409 65.464 118.659C64.4492 120.994 57.2422 114.14 54.4004 122.593C58.461 130.007 65.7687 128.256 70.0558 125.158C70.97 139.4 80.2821 140.594 90.7098 150.496C62.927 138.943 29.1546 153.136 16.3913 154.988C18.3454 159.381 22.202 164.153 27.2005 165.879C19.335 173.141 19.131 177.152 13.9814 182.406C13.9814 182.406 24.486 193.959 39.4816 182.356ZM23.7494 180.173C27.378 174.639 32.4786 169.637 39.5319 163.773C34.9136 163.189 31.2849 161.665 26.7686 158.315C36.4358 155.75 56.7347 148.413 74.0396 151.713C79.7231 152.475 82.9212 154.785 80.8399 156.106C71.5529 162.274 60.0587 176.568 51.711 193.248C44.4033 184.133 47.4994 172.201 48.9965 168.774C34.4062 177.558 30.6 181.849 23.7494 180.173Z" fill="black"/>
<path fill-rule="evenodd" clip-rule="evenodd" d="M258.254 171.77V180.122C261.122 176.644 266.704 177.33 266.704 177.33V189.389C266.704 189.389 266.501 195.329 264.42 197.868H270.434H276.448C274.341 195.329 274.164 189.389 274.164 189.389V177.355C274.164 177.355 279.72 176.669 282.588 180.148V171.795H270.434H258.254V171.77Z" fill="black"/>
<path d="M713.064 308.278V227.615H760.677V198.263H630.783V227.615H678.395V308.278H713.064ZM809.221 198.263H774.551V308.278H809.221V198.263ZM834.59 198.263V308.278H866.486V247.493L925.886 308.278H955.47V198.263H923.574V258.587L865.561 198.263H834.59ZM1023.61 266.676L1063.59 308.278H1108.2L1052.5 250.959L1106.12 198.263H1064.06L1023.61 239.634H1014.36V198.263H980.85V308.278H1014.36V266.676H1023.61ZM1177.16 195.258C1132.09 195.258 1105.05 220.681 1105.05 253.502C1105.05 286.322 1132.09 311.745 1177.16 311.745C1222 311.745 1249.04 286.322 1249.04 253.502C1249.04 220.681 1222 195.258 1177.16 195.258ZM1177.16 284.935C1154.74 284.935 1140.41 271.529 1140.41 253.502C1140.41 235.474 1154.74 222.3 1177.16 222.3C1199.35 222.3 1213.91 235.474 1213.91 253.502C1213.91 271.529 1199.35 284.935 1177.16 284.935ZM1376.13 198.263H1264.97V308.278H1298.47V269.911H1371.29V245.643H1298.47V226.228H1376.13V198.263ZM1502.31 198.263H1391.13V308.278H1424.65V269.911H1497.46V245.643H1424.65V226.228H1502.31V198.263Z" fill="black"/>
</svg>
